--------------------------------------------
 
http://www.imdb.com/title/tt2199711/

148 min  -  Action | Crime | Thriller  -  25 January 2013 (Germany)
9,3 Your rating:    -/10   Ratings: 9,3/10 from 26 963 users   
Reviews: 217 user | 22 critic

SUBTiTLES.......: Bulgarian

Screens: 
http://imgsure.com/?p=538506 
http://imgsure.com/?p=535055

Format                           : AVI
Format/Info                      : Audio Video Interleave
File size                        : 697 MiB
Duration                         : 2h 28mn
Overall bit rate                 : 654 Kbps
Writing application              : VirtualDubMod 1.5.10.2 (build 2540/release)
Writing library                  : VirtualDubMod build 2540/release

Video
ID                               : 0
Format                           : MPEG-4 Visual
Format profile                   : Advanced Simple@L5
Format settings, BVOP            : 1
Format settings, QPel            : No
Format settings, GMC             : No warppoints
Format settings, Matrix          : Custom
Codec ID                         : XVID
Codec ID/Hint                    : XviD
Duration                         : 2h 28mn
Bit rate                         : 553 Kbps
Width                            : 640 pixels
Height                           : 272 pixels
Display aspect ratio             : 2.35:1
Frame rate                       : 23.976 fps
Color space                      : YUV
Chroma subsampling               : 4:2:0
Bit depth                        : 8 bits
Scan type                        : Progressive
Compression mode                 : Lossy
Bits/(Pixel*Frame)               : 0.132
Stream size                      : 589 MiB (85%)
Writing library                  : XviD 1.2.1 (UTC 2008-12-04)

Audio
ID                               : 1
Format                           : MPEG Audio
Format version                   : Version 1
Format profile                   : Layer 3
Mode                             : Joint stereo
Mode extension                   : MS Stereo
Codec ID                         : 55
Codec ID/Hint                    : MP3
Duration                         : 2h 28mn
Bit rate mode                    : Variable
Bit rate                         : 91.3 Kbps
Nominal bit rate                 : 96.0 Kbps
Channel(s)                       : 2 channels
Sampling rate                    : 32.0 KHz
Compression mode                 : Lossy
Stream size                      : 97.2 MiB (14%)
Alignment                        : Aligned on interleaves
Interleave, duration             : 36 ms (0.86 video frame)
Interleave, preload duration     : 214 ms
Writing library                  : LAME3.99r
Encoding settings                : -m j -V 4 -q 2 -lowpass 15.1 --abr 96

--------------------------------------------

More at   
http://publichash.com/

--------------------------------------------	